<?xml version="1.0" encoding="UTF-8"?>
<svg  version="1.0" xmlns="http://www.w3.org/2000/svg"
 width="60px" height="60px" viewBox="0 0 465.000000 466.000000"
 preserveAspectRatio="xMidYMid meet">

<g transform="translate(0.000000,466.000000) scale(0.100000,-0.100000)"
fill="#000000" stroke="none">
<path d="M2165 4629 c-556 -32 -1037 -247 -1444 -643 -377 -369 -593 -777
-678 -1281 -26 -156 -26 -590 0 -754 76 -479 277 -876 627 -1234 381 -392 812
-611 1345 -684 151 -20 483 -20 640 1 147 20 336 66 464 112 644 233 1193 798
1405 1446 81 245 110 443 110 733 0 293 -29 488 -111 736 -186 570 -635 1080
-1188 1350 -353 172 -737 244 -1170 218z m352 -170 c422 -35 801 -183 1124
-440 411 -327 688 -767 784 -1243 76 -381 55 -778 -62 -1137 -64 -198 -214
-469 -360 -649 -82 -101 -299 -312 -401 -389 -280 -211 -596 -343 -952 -398
-158 -24 -482 -23 -640 1 -490 74 -874 274 -1227 640 -336 346 -523 736 -583
1211 -15 118 -15 414 -1 540 34 284 131 573 275 816 149 252 421 537 675 709
394 264 864 381 1368 339z"/>
<path d="M2100 4199 c-357 -40 -695 -185 -969 -414 -367 -307 -592 -692 -668
-1141 -25 -148 -25 -495 0 -639 67 -390 226 -699 507 -989 285 -294 583 -460
975 -542 120 -26 148 -28 365 -28 300 -1 455 24 690 111 162 59 464 237 478
281 6 19 -153 171 -219 210 -106 62 -161 76 -294 77 -181 0 -266 -31 -461
-170 -10 -7 -22 -5 -41 5 -42 23 -186 193 -265 309 -131 195 -188 331 -295
696 -66 229 -108 315 -168 351 -62 36 -124 40 -222 15 -218 -56 -427 -1 -568
151 -170 184 -198 411 -78 640 89 170 274 266 493 255 108 -5 207 -38 320
-107 l64 -39 28 47 c27 46 27 47 8 68 -29 30 -25 74 10 123 49 67 70 71 147
31 79 -41 123 -76 123 -98 0 -26 -58 -120 -84 -137 -18 -12 -30 -13 -50 -5
-24 9 -28 6 -56 -37 -16 -26 -28 -48 -27 -49 1 -1 63 -38 137 -83 l135 -81 27
53 27 52 -25 20 c-31 27 -30 43 6 116 43 85 59 90 151 44 96 -48 109 -60 109
-103 0 -42 -37 -120 -63 -134 -11 -5 -33 -7 -51 -4 -30 6 -33 4 -58 -47 l-26
-53 140 -83 c77 -45 141 -81 142 -79 1 2 14 22 29 45 32 51 32 48 7 73 -24 24
-26 67 -3 100 34 52 67 80 93 80 29 0 178 -84 187 -106 8 -22 -4 -57 -39 -110
-31 -46 -36 -49 -77 -49 -43 0 -46 -2 -72 -47 l-28 -48 135 -80 c75 -45 137
-80 139 -78 1 2 12 23 25 47 l22 43 -26 27 c-23 23 -25 31 -16 60 14 50 58
119 80 126 28 9 181 -72 199 -106 13 -24 13 -32 -4 -75 -26 -70 -58 -98 -101
-91 -33 6 -35 4 -59 -43 l-25 -49 123 -72 c67 -40 127 -76 133 -80 7 -6 22 8
42 41 l31 50 -24 25 c-30 30 -31 50 -4 95 53 88 89 99 168 54 121 -70 133 -95
83 -175 -40 -62 -55 -72 -96 -65 -32 6 -35 4 -61 -40 -15 -25 -24 -49 -20 -52
4 -4 66 -41 138 -83 l132 -77 26 47 27 46 -24 26 c-31 32 -30 41 5 116 39 82
61 89 148 43 120 -62 134 -88 94 -175 -26 -58 -68 -84 -104 -63 -13 7 -21 -1
-42 -41 -14 -28 -25 -52 -25 -55 0 -2 24 -18 53 -34 81 -46 113 -77 146 -144
35 -69 39 -122 16 -188 -17 -49 -20 -156 -4 -197 13 -36 51 -93 62 -93 13 0
101 195 136 300 70 214 96 408 88 669 -6 218 -28 352 -87 532 -95 289 -247
526 -486 760 -315 306 -665 471 -1096 518 -112 13 -328 12 -438 0z"/>
<path d="M1630 3113 c-62 -20 -90 -56 -90 -119 0 -51 53 -104 105 -104 73 0
114 40 115 113 0 40 -5 53 -29 78 -16 16 -36 29 -44 29 -9 0 -21 2 -29 4 -7 3
-20 2 -28 -1z"/>
<path d="M1985 2884 c-68 -35 -82 -125 -28 -179 70 -69 193 -18 193 80 0 42
-28 85 -65 101 -44 18 -63 18 -100 -2z"/>
<path d="M2344 2651 c-60 -36 -68 -124 -17 -175 53 -53 145 -38 177 29 20 41
20 68 1 105 -30 57 -104 76 -161 41z"/>
<path d="M2728 2433 c-54 -34 -66 -120 -22 -172 67 -80 194 -27 194 81 0 82
-100 135 -172 91z"/>
<path d="M3109 2215 c-15 -8 -34 -31 -44 -51 -46 -97 52 -195 148 -149 36 17
67 65 67 105 0 81 -98 135 -171 95z"/>
<path d="M3500 1983 c-21 -11 -42 -33 -54 -56 -16 -34 -17 -44 -7 -78 33 -111
199 -100 218 14 15 94 -74 161 -157 120z"/>
</g>
</svg>
